<svg width="333" height="347" viewBox="0 0 333 347" fill="none" xmlns="http://www.w3.org/2000/svg">
<g clip-path="url(#clip0)">
<path d="M166.007 306.291C248.073 306.291 314.6 240.06 314.6 158.36C314.6 76.6605 248.073 10.4298 166.007 10.4298C83.9411 10.4298 17.4136 76.6605 17.4136 158.36C17.4136 240.06 83.9411 306.291 166.007 306.291Z" fill="#CCE0FB"/>
<path d="M22.4355 159.052C23.0199 155.456 20.5655 152.069 16.9536 151.488C13.3417 150.906 9.94003 153.349 9.35567 156.945C8.77132 160.541 11.2256 163.927 14.8375 164.509C18.4494 165.091 21.8512 162.648 22.4355 159.052Z" fill="white"/>
<path d="M328.335 170.787C331.372 168.784 332.202 164.709 330.19 161.685C328.178 158.662 324.084 157.835 321.047 159.839C318.011 161.842 317.18 165.917 319.192 168.94C321.205 171.964 325.298 172.79 328.335 170.787Z" fill="white"/>
<path d="M65.031 134.739C69.0226 130.766 69.0226 124.323 65.031 120.349C61.0394 116.375 54.5677 116.375 50.5761 120.349C46.5845 124.323 46.5845 130.766 50.5761 134.739C54.5677 138.713 61.0394 138.713 65.031 134.739Z" fill="white"/>
<path d="M316.161 238.635C321.806 238.635 326.382 234.079 326.382 228.459C326.382 222.84 321.806 218.284 316.161 218.284C310.516 218.284 305.94 222.84 305.94 228.459C305.94 234.079 310.516 238.635 316.161 238.635Z" fill="white"/>
<path d="M293.442 138.998C302.221 138.998 309.337 131.913 309.337 123.173C309.337 114.433 302.221 107.348 293.442 107.348C284.663 107.348 277.546 114.433 277.546 123.173C277.546 131.913 284.663 138.998 293.442 138.998Z" fill="white"/>
<path d="M21.656 219.481C29.8413 216.322 33.9045 207.155 30.7312 199.007C27.558 190.858 18.35 186.813 10.1646 189.972C1.97929 193.131 -2.08382 202.298 1.08942 210.447C4.26267 218.596 13.4706 222.641 21.656 219.481Z" fill="white"/>
<path d="M245.79 271.682C263.069 269.797 257.565 315.732 258.146 319.312C265.282 304.532 283.043 259.861 304.294 263.604C323.857 267.05 299.478 303.148 278.376 312.328C284.334 309.729 319.778 291.447 326.304 308.706C333.901 328.817 273.758 329.184 273.758 329.184C273.758 329.184 298.251 331.338 292.243 339.07C278.099 357.253 252.046 338.364 252.046 338.364C252.046 338.364 224.575 274.006 245.79 271.682Z" fill="#97B9E8"/>
<path d="M256.395 339.07C256.395 339.07 273.78 303.169 294.917 277.367" stroke="#E9F2F9" stroke-width="2.51" stroke-linecap="round" stroke-linejoin="round"/>
<path d="M248.635 284.626C248.635 284.626 250.358 317.165 259.139 333.64" stroke="#E9F2F9" stroke-width="2.51" stroke-linecap="round" stroke-linejoin="round"/>
<path d="M316.523 314.27C316.523 314.27 283.618 317.547 264.069 324.403" stroke="#E9F2F9" stroke-width="2.51" stroke-linecap="round" stroke-linejoin="round"/>
<path d="M107.134 272.163C94.9482 254.848 72.9525 218.686 60.114 168.112" stroke="#97B9E8" stroke-linecap="round" stroke-linejoin="round"/>
<path d="M65.2424 187.058C65.2424 187.058 64.2281 137.868 73.1583 137.133C84.8336 136.173 65.2424 187.058 65.2424 187.058Z" fill="#97B9E8"/>
<path d="M64.9515 185.208C64.9515 185.208 25.6628 155.366 30.6705 147.952C37.1678 138.256 64.9515 185.208 64.9515 185.208Z" fill="#97B9E8"/>
<path d="M69.9309 199.783C69.9309 199.783 24.3364 180.801 27.273 172.377C31.1174 161.354 69.9309 199.783 69.9309 199.783Z" fill="#97B9E8"/>
<path d="M75.9247 214.732C75.9247 214.732 28.5002 200.891 30.4862 192.192C33.0823 180.816 75.9247 214.732 75.9247 214.732Z" fill="#97B9E8"/>
<path d="M83.9894 232.668C83.9894 232.668 36.572 218.82 38.551 210.121C41.1471 198.723 83.9894 232.668 83.9894 232.668Z" fill="#97B9E8"/>
<path d="M60.724 171.184C60.724 171.184 42.4238 125.475 50.5312 121.662C61.1212 116.683 60.724 171.184 60.724 171.184Z" fill="#97B9E8"/>
<path d="M70.321 201.442C70.321 201.442 73.2931 152.33 82.2587 152.316C93.9765 152.294 70.321 201.442 70.321 201.442Z" fill="#97B9E8"/>
<path d="M76.3147 215.494C76.3147 215.494 82.7836 166.714 91.7209 167.335C103.41 168.14 76.3147 215.494 76.3147 215.494Z" fill="#97B9E8"/>
<path d="M84.2021 233.692C84.2021 233.692 90.6711 184.918 99.6084 185.54C111.298 186.345 84.2021 233.692 84.2021 233.692Z" fill="#97B9E8"/>
<path d="M229.313 288.941C240.336 270.863 259.906 233.353 269.403 182.051" stroke="#97B9E8" stroke-linecap="round" stroke-linejoin="round"/>
<path d="M265.53 201.301C265.53 201.301 263.317 152.153 254.359 151.998C242.641 151.8 265.53 201.301 265.53 201.301Z" fill="#97B9E8"/>
<path d="M265.693 199.43C265.693 199.43 302.946 167.095 297.485 160.02C290.349 150.783 265.693 199.43 265.693 199.43Z" fill="#97B9E8"/>
<path d="M261.693 214.308C261.693 214.308 305.94 192.418 302.45 184.184C297.896 173.436 261.693 214.308 261.693 214.308Z" fill="#97B9E8"/>
<path d="M256.685 229.61C256.685 229.61 303.103 212.719 300.549 204.189C297.215 192.982 256.685 229.61 256.685 229.61Z" fill="#97B9E8"/>
<path d="M249.847 248.034C249.847 248.034 296.265 231.136 293.711 222.612C290.342 211.434 249.847 248.034 249.847 248.034Z" fill="#97B9E8"/>
<path d="M268.999 185.158C268.999 185.158 284.263 138.369 275.922 135.093C265.027 130.806 268.999 185.158 268.999 185.158Z" fill="#97B9E8"/>
<path d="M261.402 215.989C261.402 215.989 255.217 167.173 246.273 167.745C234.576 168.486 261.402 215.989 261.402 215.989Z" fill="#97B9E8"/>
<path d="M256.345 230.394C256.345 230.394 246.698 182.143 237.81 183.344C226.199 184.911 256.345 230.394 256.345 230.394Z" fill="#97B9E8"/>
<path d="M249.67 249.072C249.67 249.072 240.016 200.842 231.136 202.021C219.524 203.589 249.67 249.072 249.67 249.072Z" fill="#97B9E8"/>
<path d="M222.95 328.57C223.149 328.57 224.064 312.724 229.703 292.676C235.08 272.678 245.173 248.507 257.749 233.176C275.78 209.824 300.365 202.049 309.203 205.7C318.736 209.556 312.522 224.837 285.2 252.186C258.955 280.516 248.202 302.089 242.23 315.739C236.555 329.516 235.605 335.37 235.59 335.447C231.457 333.08 227.244 330.787 222.95 328.57Z" fill="#97B9E8"/>
<path d="M294.846 218.157C294.846 218.157 240.775 243.211 230.497 330.886" stroke="#E9F2F9" stroke-width="2.51" stroke-linecap="round" stroke-linejoin="round"/>
<path d="M106.326 313.55C106.127 313.55 105.07 297.711 99.2325 277.713C93.6786 257.764 83.3723 233.678 70.6615 218.46C52.4464 195.27 27.8333 187.708 18.9953 191.443C9.49056 195.376 15.8389 210.608 43.4027 237.71C69.9096 265.814 80.8401 287.288 86.9331 300.882C92.7494 314.609 93.7283 320.449 93.7424 320.534C97.8564 318.128 102.051 315.8 106.326 313.55Z" fill="#97B9E8"/>
<path d="M33.451 203.772C33.451 203.772 87.7488 228.382 98.7998 315.944" stroke="#E9F2F9" stroke-width="2.51" stroke-linecap="round" stroke-linejoin="round"/>
<path d="M102.254 283.871C90.0753 270.171 77.8114 284.167 82.9822 307.618C76.5417 294.908 52.2904 256.409 33.8767 260.024C16.9384 263.343 9.94455 284.287 43.6226 310.28C40.3527 309.779 21.1587 311.968 21.4212 323.619C21.8326 341.873 75.8253 341.563 75.8253 341.563L91.04 340.814C91.04 340.814 114.539 297.704 102.254 283.871Z" fill="#97B9E8"/>
<path d="M87.2735 341.478C87.2735 341.478 71.5552 310.563 52.7513 288.517" stroke="#E9F2F9" stroke-width="2.51" stroke-linecap="round" stroke-linejoin="round"/>
<path d="M93.0899 294.053C93.0899 294.053 92.1395 322.363 84.791 336.824" stroke="#E9F2F9" stroke-width="2.51" stroke-linecap="round" stroke-linejoin="round"/>
<path d="M34.5931 320.929C34.5931 320.929 63.2422 323.224 80.3508 328.859" stroke="#E9F2F9" stroke-width="2.51" stroke-linecap="round" stroke-linejoin="round"/>
<path d="M240.626 291.772C240.172 277.529 235.86 263.435 230.625 241.756C221.56 204.253 216.489 239.638 187.584 236.192C186.713 236.135 185.838 236.135 184.967 236.192H146.515C128.938 236.192 112.532 204.253 103.474 241.756C98.2394 263.435 90.5788 276.979 92.8983 290.063L89.0751 328.654H243.222L240.626 291.772Z" fill="#358E9D"/>
<path d="M220.588 102.688C229.334 181.07 214.616 257.75 214.616 257.75L236.704 291.779C256.288 219.753 244.201 129.62 231.512 91.8907C227.859 95.6263 224.248 99.0016 220.588 102.688Z" fill="#F7AC99"/>
<path d="M222.184 120.892C227.15 192.601 214.602 257.757 214.602 257.757L236.69 291.786C248.982 234.228 249.379 156.687 237.243 112.969C232.115 115.9 227.526 118.385 222.184 120.892Z" fill="#D68B78"/>
<path d="M240.506 328.654C242.031 329.149 240.974 317.78 245.35 276.089C251.685 203.624 248.684 152.118 238.222 113.951L237.64 114.487C232.824 118.929 222.518 125.941 218.155 133.052C222.007 202.254 209.559 257.447 209.559 257.447C209.559 257.447 229.816 325.187 240.506 328.654Z" fill="#358E9D"/>
<path d="M215.744 216.568C215.744 219.152 215.63 221.737 215.41 224.335C215.191 226.934 214.871 229.476 214.481 232.032C214.091 234.589 213.666 237.131 213.204 239.666C212.743 242.201 212.183 244.701 211.538 247.222C211.48 244.619 211.682 242.017 212.141 239.454C212.566 236.905 213.034 234.377 213.481 231.842C213.928 229.307 214.347 226.772 214.722 224.222C215.098 221.673 215.446 219.138 215.744 216.568Z" fill="#1D4E56"/>
<path d="M112.014 102.264C103.269 180.646 117.965 257.757 117.965 257.757L95.8775 291.786C76.2934 219.76 88.3801 129.627 101.07 91.8978C104.687 95.6263 108.354 98.5709 112.014 102.264Z" fill="#F7AC99"/>
<path d="M110.383 120.892C105.418 192.601 117.965 257.757 117.965 257.757L95.8774 291.786C83.578 234.228 83.1878 156.687 95.3242 112.969C100.467 115.9 105.056 118.385 110.383 120.892Z" fill="#D68B78"/>
<path d="M92.0755 328.654C90.5434 329.149 91.6002 317.78 87.2238 276.089C80.8897 203.61 83.8688 152.118 94.3595 113.937L94.9411 114.473C99.7786 118.943 110.057 125.941 114.419 133.059C110.567 202.261 123.023 257.454 123.023 257.454C123.023 257.454 102.758 325.187 92.0755 328.654Z" fill="#358E9D"/>
<path d="M116.83 216.568C117.128 219.138 117.476 221.687 117.852 224.23C118.228 226.772 118.653 229.314 119.1 231.849C119.547 234.384 120.015 236.912 120.434 239.461C120.896 242.024 121.098 244.626 121.037 247.229C120.391 244.708 119.852 242.208 119.37 239.673C118.887 237.138 118.476 234.596 118.093 232.04C117.71 229.483 117.384 226.92 117.171 224.343C116.958 221.765 116.83 219.152 116.83 216.568Z" fill="#1D4E56"/>
<path d="M248.301 227.916C243.222 260.194 247.358 300.896 222.525 319.284C209.176 329.17 176.732 327.193 145.111 328.64H240.506C240.561 328.658 240.621 328.658 240.676 328.64H243.222L242.151 313.437C242.669 305.267 243.57 293.241 245.35 276.075C246.854 258.866 247.826 242.858 248.301 227.916Z" fill="#1D4E56"/>
<path d="M166.149 246.063C171.994 246.063 176.732 242.437 176.732 237.964C176.732 233.491 171.994 229.865 166.149 229.865C160.304 229.865 155.566 233.491 155.566 237.964C155.566 242.437 160.304 246.063 166.149 246.063Z" fill="#ED9884"/>
<path d="M168.312 236.947C170.783 237.031 173.256 236.854 175.689 236.418V208.37H156.609V234.539C159.956 236.644 164.489 236.813 168.312 236.947Z" fill="#ED9884"/>
<path d="M168.312 228.819C170.777 228.878 173.243 228.75 175.689 228.438V208.37H156.609V227.096C159.956 228.601 164.489 228.721 168.312 228.819Z" fill="#DB5E58"/>
<path d="M164.922 217.33C187.212 217.33 205.281 205.968 205.281 191.952C205.281 177.935 187.212 166.573 164.922 166.573C142.632 166.573 124.562 177.935 124.562 191.952C124.562 205.968 142.632 217.33 164.922 217.33Z" fill="#110303"/>
<path d="M138.791 161.481C138.791 161.481 140.621 173.571 133.216 176.685C125.81 179.799 128.101 187.065 128.101 187.065C128.101 187.065 112.44 141.116 145.721 135.771C145.721 135.771 175.689 105.541 197.749 128.222C215.481 146.44 205.508 173.599 205.508 173.599C203.898 188.131 161.418 166.276 138.791 161.481Z" fill="#280606"/>
<path d="M135.315 136.096C135.315 136.096 143.465 133.003 145.834 137.727L149.587 134.302C149.587 134.302 141.486 128.25 135.315 136.096Z" fill="#280606"/>
<path d="M182.598 146.765C173.597 146.172 169.766 158.586 152.026 153.573C152.026 153.573 161.602 164.624 138.791 161.481C138.791 161.481 139.025 172.137 131.612 175.251C130.722 175.636 129.881 176.127 129.109 176.713C128.896 178.203 128.733 179.7 128.662 181.197C128.016 194.289 129.023 205.036 136.649 212.974C151.622 228.544 177.909 228.579 193.266 213.553L193.847 212.974C201.472 205.044 202.473 194.296 201.834 181.197C201.167 167.688 194.174 153.799 182.598 146.765Z" fill="#F7AC99"/>
<path d="M140.174 162.986C144.593 165.005 154.083 167.039 158.056 165.485C161.659 164.073 160.737 159.836 154.665 156.044C166.553 159.476 174.476 155.486 178.782 147.302C172.121 149.569 167.071 157.817 152.048 153.573C152.048 153.573 161.623 164.624 138.812 161.481C138.8 163.376 138.537 165.261 138.032 167.088C138.997 165.866 139.723 164.474 140.174 162.986Z" fill="#EC9385"/>
<path d="M201.834 181.197C201.53 175.427 200.149 169.764 197.763 164.497C200.905 183.626 195.94 202.784 184.591 211.9C172.299 221.786 153.02 221.483 135.315 211.47C135.734 211.978 136.181 212.479 136.649 212.967C151.622 228.537 177.909 228.572 193.266 213.546L193.847 212.967C201.473 205.037 202.473 194.289 201.834 181.197Z" fill="#EC9385"/>
<path d="M188.434 174.334C189.19 171.134 187.196 167.929 183.982 167.177C180.767 166.425 177.548 168.409 176.792 171.609C176.037 174.81 178.03 178.014 181.245 178.767C184.459 179.519 187.678 177.535 188.434 174.334Z" fill="white"/>
<path d="M182.314 173.973C185.158 173.973 187.464 171.678 187.464 168.846C187.464 166.015 185.158 163.72 182.314 163.72C179.47 163.72 177.164 166.015 177.164 168.846C177.164 171.678 179.47 173.973 182.314 173.973Z" fill="#110303"/>
<path d="M151.683 178.569C154.775 177.416 156.343 173.985 155.184 170.906C154.026 167.828 150.579 166.267 147.487 167.421C144.395 168.574 142.827 172.005 143.986 175.084C145.144 178.162 148.591 179.723 151.683 178.569Z" fill="white"/>
<path d="M149.274 173.973C152.118 173.973 154.424 171.678 154.424 168.846C154.424 166.015 152.118 163.72 149.274 163.72C146.43 163.72 144.125 166.015 144.125 168.846C144.125 171.678 146.43 173.973 149.274 173.973Z" fill="#110303"/>
<path d="M179.278 190.25C179.278 195.786 173.398 200.277 166.149 200.277C158.9 200.277 153.02 195.786 153.02 190.25" stroke="#110303" stroke-width="1.5" stroke-linecap="round" stroke-linejoin="round"/>
<path d="M167.958 182.807C167.958 182.807 157.772 178.57 163.191 188.527" stroke="#280606" stroke-miterlimit="10"/>
<path d="M134.905 187.875C137.302 182.727 135.053 176.619 129.882 174.233C124.71 171.846 118.575 174.085 116.178 179.233C113.781 184.381 116.03 190.49 121.201 192.876C126.372 195.262 132.507 193.024 134.905 187.875Z" fill="#F7AC99"/>
<path d="M131.613 183.626C128.328 176.565 123.065 177.596 120.491 180.498" stroke="#280606" stroke-width="0.94" stroke-linecap="round" stroke-linejoin="round"/>
<path d="M124.562 183.894C124.562 181.07 126.328 179.481 128.108 179.192" stroke="#280606" stroke-width="0.94" stroke-linecap="round" stroke-linejoin="round"/>
<path d="M207.835 173.302C206.092 173.303 204.377 173.744 202.851 174.584C201.326 175.424 200.039 176.635 199.111 178.104C199.409 181.889 199.586 185.794 199.543 189.671C200.59 191.081 201.982 192.201 203.586 192.924C205.191 193.647 206.955 193.948 208.71 193.8C210.465 193.652 212.152 193.059 213.612 192.077C215.071 191.096 216.254 189.758 217.047 188.193C217.84 186.627 218.217 184.886 218.142 183.134C218.068 181.382 217.544 179.678 216.62 178.185C215.696 176.692 214.404 175.46 212.866 174.605C211.328 173.75 209.596 173.302 207.835 173.302V173.302Z" fill="#EC9385"/>
<path d="M201.763 183.626C205.055 176.565 210.311 177.596 212.885 180.498" stroke="#280606" stroke-width="0.94" stroke-linecap="round" stroke-linejoin="round"/>
<path d="M208.814 183.894C208.814 181.07 207.048 179.481 205.267 179.192" stroke="#280606" stroke-width="0.94" stroke-linecap="round" stroke-linejoin="round"/>
<path d="M172.724 161.481C172.724 161.481 183.449 148.298 189.662 162.986C189.662 162.986 185.251 158.297 172.724 161.481Z" fill="#280606"/>
<path d="M158.056 161.481C158.056 161.481 147.331 148.298 141.117 162.986C141.117 162.986 145.529 158.297 158.056 161.481Z" fill="#280606"/>
<path d="M218.389 96.982C218.389 96.982 215.985 87.435 216.262 79.9428C216.472 75.3444 218.22 70.9478 221.227 67.451L228.845 77.4359L218.389 96.982Z" fill="#DD0721"/>
<path d="M200.274 0C187.584 0 173.88 6.60952 166.149 18.0138C158.417 6.60952 144.713 0 132.024 0C109.262 0 90.3306 16.4391 93.3523 44.4024C98.282 89.9347 162.602 132.593 166.149 134.902C169.695 132.593 234.016 89.9347 238.945 44.4024C241.967 16.4391 223.036 0 200.274 0Z" fill="#EF233C"/>
<path d="M133.308 108.754C143.54 118.318 154.522 127.055 166.149 134.881C169.695 132.572 234.016 89.9136 238.945 44.3813C240.704 28.1399 235.023 15.74 225.468 8.2478C237.08 35.6604 201.763 134.902 133.308 108.754Z" fill="#E90823"/>
<path d="M166.227 35.7805L182.974 61.8019C184.927 64.8353 186.024 68.3361 186.15 71.9369C186.276 75.5378 185.426 79.1061 183.69 82.2674C181.953 85.4287 179.394 88.0665 176.281 89.9041C173.168 91.7418 169.616 92.7114 165.996 92.7114C162.377 92.7114 158.825 91.7418 155.712 89.9041C152.598 88.0665 150.039 85.4287 148.303 82.2674C146.567 79.1061 145.717 75.5378 145.843 71.9369C145.969 68.3361 147.066 64.8353 149.019 61.8019L165.766 35.7805C165.785 35.7498 165.809 35.7233 165.839 35.7026C165.868 35.682 165.902 35.6675 165.937 35.6602C165.972 35.6529 166.009 35.653 166.044 35.6603C166.079 35.6676 166.112 35.6821 166.142 35.7028C166.175 35.723 166.204 35.7494 166.227 35.7805Z" fill="white"/>
<path d="M241.69 43.9011C241.69 43.9011 244.457 65.5162 231.108 84.9988L230.398 73.4109C230.398 73.4109 237.03 56.4634 237.818 48.7735C238.605 41.0836 241.69 43.9011 241.69 43.9011Z" fill="#F7AC99"/>
<path d="M220.588 102.688C220.588 102.688 215.247 95.5839 220.588 86.5452C225.929 77.5066 229.284 68.482 226.866 61.8301C224.447 55.1782 231.398 55.3265 232.001 64.1463C232.604 72.966 231.356 83.7065 231.356 83.7065L231.512 91.8625L220.588 102.688Z" fill="#F7AC99"/>
<path d="M235.115 46.4786C235.115 46.4786 241.414 67.3522 231.455 88.7555L228.845 77.4572C228.845 77.4572 232.583 59.6129 232.115 51.9159C231.646 44.2189 235.115 46.4786 235.115 46.4786Z" fill="#F7AC99"/>
<path d="M236.224 83.0947C239.06 74.6177 239.542 67.1434 237.301 66.4003C235.06 65.6572 230.944 71.9268 228.108 80.4038C225.273 88.8808 224.79 96.3551 227.032 97.0981C229.273 97.8412 233.389 91.5717 236.224 83.0947Z" fill="#F7AC99"/>
<path d="M113.929 96.982C113.929 96.982 116.327 87.435 116.093 79.9428C115.872 75.3401 114.112 70.9431 111.092 67.451L103.474 77.4359L113.929 96.982Z" fill="#ED2039"/>
<path d="M90.6286 43.9011C90.6286 43.9011 87.8552 65.5162 101.211 84.9988L101.921 73.4109C101.921 73.4109 95.2887 56.4634 94.4943 48.7735C93.6999 41.0836 90.6286 43.9011 90.6286 43.9011Z" fill="#F7AC99"/>
<path d="M111.723 102.688C111.723 102.688 117.072 95.5839 111.723 86.5452C106.375 77.5066 103.034 68.482 105.453 61.8301C107.872 55.1782 100.921 55.3265 100.311 64.1463C99.7006 72.966 100.956 83.7065 100.956 83.7065L100.807 91.8625L111.723 102.688Z" fill="#F7AC99"/>
<path d="M97.2038 46.4785C97.2038 46.4785 90.9052 67.3804 100.892 88.7554L103.503 77.4571C103.503 77.4571 99.7574 59.641 100.247 51.937C100.736 44.2329 97.2038 46.4785 97.2038 46.4785Z" fill="#F7AC99"/>
<path d="M96.0902 83.1063C98.9274 91.5801 103.041 97.8577 105.311 97.1092C107.581 96.3607 107.07 88.8967 104.233 80.4159C101.396 71.9351 97.2818 65.6645 95.012 66.406C92.7422 67.1474 93.2529 74.6255 96.0902 83.1063Z" fill="#F7AC99"/>
<path d="M19.0449 8.26196H14.6826V29.9053H19.0449V8.26196Z" fill="#CCE0FB"/>
<path d="M27.734 21.2621V16.9193H5.99364V21.2621H27.734Z" fill="#CCE0FB"/>
<path d="M15.7041 77.8949H11.3418V99.5383H15.7041V77.8949Z" fill="#CCE0FB"/>
<path d="M24.3932 90.895V86.5522H2.65281V90.895H24.3932Z" fill="#CCE0FB"/>
<path d="M310.962 8.26196H306.599V29.9053H310.962V8.26196Z" fill="#CCE0FB"/>
<path d="M319.651 21.2621V16.9193H297.91V21.2621H319.651Z" fill="#CCE0FB"/>
<path d="M321.382 73.877H317.019V95.5203H321.382V73.877Z" fill="#CCE0FB"/>
<path d="M330.07 86.8771V82.5343H308.33V86.8771H330.07Z" fill="#CCE0FB"/>
<path d="M63.015 35.9075H60.7026V47.3965H63.015V35.9075Z" fill="#CCE0FB"/>
<path d="M67.6327 42.8066V40.5045H56.0922V42.8066H67.6327Z" fill="#CCE0FB"/>
<path d="M263.835 32.4685H261.523V43.9575H263.835V32.4685Z" fill="#CCE0FB"/>
<path d="M268.453 39.3605V37.0585H256.912V39.3605H268.453Z" fill="#CCE0FB"/>
</g>
<defs>
<clipPath id="clip0">
<rect width="333" height="347" fill="white"/>
</clipPath>
</defs>
</svg>
